<svg xmlns="http://www.w3.org/2000/svg" viewBox="0 0 2000 2000">
  <rect width="2000" height="2000" rx="400" fill="#5865f2"/>
  <path fill="#fff" d="M1493.5 542.5a1158 1158 0 0 0-293.5-92.1 925.2 925.2 0 0 0-37.2 77.7 1074.4 1074.4 0 0 0-325.2 0c-9.4-24.4-25-54.9-37.2-77.7a1154.4 1154.4 0 0 0-294.1 92.1A1229.6 1229.6 0 0 0 295.4 1366a1171.4 1171.4 0 0 0 360.7 183.1c29-40 54.6-82.3 76.6-126.5a769 769 0 0 1-121-58.8l29.4-23.9a828.1 828.1 0 0 0 719.1 0c9.4 8.3 19.4 16.6 29.4 23.9a751.7 751.7 0 0 1-121.5 58.8 931 931 0 0 0 77.1 127.1 1170.9 1170.9 0 0 0 359.6-184.2c29.4-312.4-49.9-583.2-210.9-823.5l-.4.5zM764.4 1200c-70.5 0-127.6-65.5-127.6-145.4s56-145.4 127.6-145.4c71 0 128.7 65.5 127.6 145.4 0 80-56.6 145.4-127.6 145.4zm471.6 0c-69.9 0-127.6-65.5-127.6-145.4S1165 909.3 1236 909.3c71.6 0 129.3 65.5 127.6 145.4.1 79.9-56 145.3-127.6 145.3z"/>
</svg>
