<svg xmlns="http://www.w3.org/2000/svg" viewBox="0 0 2000 2000">
  <rect width="2000" height="2000" rx="400" fill="#5662f6"/>
  <path fill="#fff" d="m790 460.4-12.5 2.5-11 2.1-11 2.4c-28.2 5.9-62.2 14.5-84.5 21.1l-18.5 5.5a854 854 0 0 0-67.5 23l-12 4.5c-5.1 1.9-30.7 12.4-36 14.7l-21.4 9.4a34 34 0 0 0-9.2 5.4c-1.3 1.4-8.3 11.7-15.5 22.9a1343.6 1343.6 0 0 0-104.4 194.6l-6.1 14c-2.1 4.9-17 43.4-19.9 51.5l-3.5 9.5c-2.6 5.9-17.4 52-21.9 68.5l-3.1 10.6c-1.4 4.4-11.8 46.2-14.1 56.9a994.6 994.6 0 0 0-11.8 61.5c-4.1 25.1-7.1 47-9 66.5l-2.1 21c-1.4 14.4-2.8 38-3.6 61.3-.4 11.1-1.1 20.5-1.5 20.8-1.2.7-1.2 49.4 0 49.4.5 0 1.2 9.6 1.5 21.2.4 11.7 1.4 31 2.3 42.8a6408 6408 0 0 0 2 28.8l.5 7.2 8.2 5.9c32.6 23.5 72.8 49.7 101.1 66.1 30 17.4 62.7 34.6 90.5 47.8a928 928 0 0 0 53.5 23.6l9 3.6c9.3 3.8 32 12.4 36.5 14l5.5 2c9.3 3.6 26.7 9.5 45.8 15.4 10.8 3.4 9.3 4.4 22.7-14.9a894.6 894.6 0 0 0 59.4-97.7l4.6-8.8-2.3-1.4c-1.2-.7-4.4-2.2-7.2-3.1-2.7-1-5.4-2.2-6-2.7-.5-.4-1.5-.8-2.2-.8-.7 0-3.6-1.1-6.5-2.4-11-4.9-14.8-6.6-15.2-6.6-.8 0-24.2-11.2-38.6-18.4a330.5 330.5 0 0 1-40.7-23.2c-.2-.7 5.8-5.9 13.4-11.8 10.5-8.1 14.2-10.5 15.7-10 1.2.4 5.3 2.2 9.3 4 4 1.9 7.5 3.4 7.8 3.4l6.2 2.6c8.2 3.7 8.1 3.6 25.8 10.5l18 7c2.8 1.2 41.4 14 45 15l10 2.8c13.1 4 41 11.4 49.5 13.1l17 3.5c13.4 2.8 14.6 3.1 37.5 7a850 850 0 0 0 175.5 9.5 869.7 869.7 0 0 0 174.5-28.1l27-7.9c8.4-2.2 54.5-18.3 63-22.1l7.5-3 8.5-3.4 10.5-4.5 13.5-6c10.2-4.6 9.4-4.7 18.1 2.2l13.7 10.7c3.1 2.4 5.7 4.7 5.7 5.1 0 .8-2.9 2.8-10 6.8l-10 5.7a913.6 913.6 0 0 1-98.5 45.7c-1 .9-.5 2 10.7 22.7l6.8 12.7c0 .6 18.7 31.6 25.3 41.9a511.8 511.8 0 0 0 33.4 47.2c1.3.5 34.8-10.1 52.3-16.5l16-5.9a375 375 0 0 0 20.5-7.8c9.5-3.7 10.3-4 15.7-6.4 2.6-1.2 5-2.1 5.4-2.1.3 0 3-1.1 6-2.5s5.7-2.5 5.9-2.5l5.7-2.4 9.8-4.4a1178.6 1178.6 0 0 0 191.3-108c25.5-17.7 30-21.3 30.9-24.7.9-3.4 3.3-35.2 4.4-57.7.4-8.2 1-14.8 1.5-14.8 1.1 0 1.1-96.7 0-97.4-.4-.3-1.1-6.7-1.5-14.3-1-19.7-2.5-41.4-3.6-51.8l-2-19.5a1303.8 1303.8 0 0 0-16-102.5l-2.6-12c-1.6-7.7-5.8-26.1-9-39.5-2.1-8.7-9.7-36.6-11.4-42l-3.5-11.5a1246.5 1246.5 0 0 0-89.8-217 1390.6 1390.6 0 0 0-68.5-114.9l-8.6-12.9-10.3-4.8a176 176 0 0 0-16.6-7.3c-2.9-1.4-10.4-4.5-16.7-7.1l-13.5-5.5a1143.3 1143.3 0 0 0-179-55l-8.5-1.9c-5.4-1.2-26-5.3-38.7-7.7-7.4-1.3-9.6-1.4-10.7-.5a968.8 968.8 0 0 0-32.5 64.6c-1.9 4.4-4 8.6-4.7 9.4-1 1.1-3.5 1-16.1-.7-51.2-7.1-87-9.3-147.8-9.3-60.2.1-99.8 2.8-155.6 10.7l-4.5.6-2.9-6.3-5.5-12.4c-4.6-10.1-18.9-38.5-24.3-48.3-5.6-10.3-5.4-10.1-15.7-7.8zm2.5 454.1c11.4 2.8 10.6 2.5 24.5 9.3a132.8 132.8 0 0 1 60.1 62.1 83.3 83.3 0 0 1 5.8 13.9 155 155 0 0 1 6.7 24.2c2.2 10.7 2.5 45 .6 55-6.8 34.2-19.5 59.3-40.7 80.6A115.5 115.5 0 0 1 765 1196c-23.2 0-41.9-5.5-62.7-18.4a143.7 143.7 0 0 1-60.7-87.6c-5.7-24.4-5.4-52.7.9-76.5 13.5-51.1 51.4-89.8 98-99.9a88.6 88.6 0 0 1 28.5-2c10.2.2 16 1 23.5 2.9zm469-.7c36.6 9 65.9 32.2 84.7 67.3a210 210 0 0 1 11 26.4c3.2 10.7 6.8 34.3 6.8 45 0 13-4.2 38-8.5 51-6.7 19.9-20.1 42-34.1 56a118.2 118.2 0 0 1-84.9 36.5 112 112 0 0 1-71.3-24.4A147 147 0 0 1 1109 1054c.1-37.1 11-68.8 33.5-96.9a126.8 126.8 0 0 1 78-45.2c9.9-1.3 32-.2 41 1.9z"/>
</svg>
