<svg xmlns="http://www.w3.org/2000/svg" viewBox="0 0 2000 2000">
  <rect width="2000" height="2000" rx="400" fill="#25a3e1"/>
  <path fill="#fff" d="M1446.9 547.5a392.2 392.2 0 0 0-50.4 13c-3.3.9-6.9 2.1-8 2.5-1.1.5-7.4 2.7-14 4.9-12 3.9-14.4 4.8-37 13.4-6.6 2.6-14.2 5.4-17 6.3a114 114 0 0 0-9 3.4l-21.5 8.5-20.5 8-7.5 3-11.5 4.6-18.5 7.5c-9.1 3.6-17.8 7.1-19.5 7.9-5.9 2.5-10 4.2-13.5 5.5a127 127 0 0 0-13.4 5.6 14 14 0 0 1-3.8 1.4c-.5 0-2.8.9-5.1 1.9l-24.2 10.1-23 9.6-8.5 3.4a558.9 558.9 0 0 0-18 7.5c-1.4.4-4.7 1.8-7.5 3a207 207 0 0 1-10.5 4.5l-15 6.3-9 3.7a417.5 417.5 0 0 0-14.4 6 1111.9 1111.9 0 0 0-43 18 1274.6 1274.6 0 0 1-24.6 10.4l-16.5 7-7.7 3.5a36.8 36.8 0 0 1-5.2 2.1 584.2 584.2 0 0 1-28.6 12.2l-15.5 6.7-7.6 3.5a63.6 63.6 0 0 1-6.2 2.6 2075.3 2075.3 0 0 1-28.2 12l-22.3 9.6a46 46 0 0 1-5.9 2.4c-.3 0-3.1 1.2-6.2 2.6l-7.6 3.5a509.5 509.5 0 0 0-23 9.9l-6.2 2.6c-7.4 3.4-8.4 3.8-29.3 12.7a1636.6 1636.6 0 0 0-38.6 16.7c-.5 0-4.7 1.8-16.2 7.1a96.8 96.8 0 0 1-6.7 2.9 584.2 584.2 0 0 1-17.5 7.5 494 494 0 0 0-19.5 8.5 1416.7 1416.7 0 0 1-25.5 11 1416.7 1416.7 0 0 0-33.4 14.5c-4.2 1.9-7.8 3.5-8.1 3.5-.4 0-2.8 1-16.8 7.4l-6.2 2.6c-.2 0-3.4 1.3-7 3l-7 3-6 2.5-11 5a54.2 54.2 0 0 1-6.1 2.5c-.3 0-3.3 1.3-6.7 2.8l-12.2 5.5a1388.4 1388.4 0 0 0-23.8 10.3 435.4 435.4 0 0 0-19.2 8.4 584.2 584.2 0 0 1-17.5 7.5c-8.2 3.4-16.8 7.2-27.3 11.9-3.2 1.4-5.9 2.6-6.2 2.6l-6.7 2.9a494 494 0 0 1-12.8 5.6 1034.2 1034.2 0 0 0-33.5 14.5c-2.3 0-37.7 17.9-46.2 23.3-15.5 10-26.3 20.1-30.4 28.6a39.7 39.7 0 0 0-1.9 22.8c5 15.6 24 29.1 55.5 39.4 3.3 1.1 6.8 2.4 7.7 3 1 .5 2.6.9 3.6.9s2.2.4 2.8.8c1 .9 1.5 1 22.9 7.7 18.8 5.8 45.3 14.1 52.5 16.5l11.5 3.5 8.5 2.5 7 2 9 2.7c2.5.8 8.8 2.5 14 3.8l23.5 6c17.2 4.4 27 6.5 49.5 10.5a182 182 0 0 0 56.5 1.5c22.5-4.1 33-7.8 58.5-20.3 12.2-6 24.1-13.5 56-34.8l62-41.5 22-14.9 18-12.3 38.5-25.8c52-35.2 191.5-128.5 217.4-145.5l6.7-4.4 31.6-20.5a3104 3104 0 0 0 30.3-19.7c2.2-1.8 26.3-16.5 31-18.9a44 44 0 0 1 21.7-4.5c8.9 1.7 14.1 8.4 14.2 18.7.1 6.3-.1 6.8-4.4 12.5-12.1 16-50.2 54.9-102 104.4l-23.9 23-12.1 11.5-17 16-16.5 15.5-24.5 23-37 34.5c-10.7 9.9-23.8 22-29 27l-16 14.9a2347.5 2347.5 0 0 0-92.4 90.6c-20 24-25.8 39.8-21.1 58 4 15.4 18.9 33.8 40 49.5 5.5 4.1 40.7 27.9 48.8 33l18.9 12.8 30.3 20.5 25 17.1 20 13.6a2532.9 2532.9 0 0 0 48.9 33.1c3.8 2.5 7.5 5.2 8.3 6 .8.8 2 1.4 2.8 1.4.7 0 1.5.4 1.7.8.2.5 5 3.9 10.8 7.7a538.9 538.9 0 0 0 27 17.9 159 159 0 0 1 17 11.6 659 659 0 0 1 36 23.9c.5.5 6.2 4.5 15.9 11a763.7 763.7 0 0 0 39.6 27.1c.3 0 2.2 1.1 4.3 2.4a201.3 201.3 0 0 0 61.2 26.3c12.3 2.5 37.4 2.5 45-.1a66.1 66.1 0 0 0 34.6-26.7c4.3-6 4.9-7.1 9.7-16.1 2.8-5.4 4.4-9 9.7-22.3a274 274 0 0 0 13.5-52l5-26 2.9-16c1.5-8.6 2.7-15.6 4.7-25.5l2.3-13.5c1.4-8.3 2.6-14.8 4.6-25l2.9-17c1.1-7.2 2.6-15.5 3.2-18.5l1.6-8 3.9-22.5c2.3-14 3.2-19.1 5.4-31l3.5-20.5c1.4-9.2 2.4-14.7 4.5-26.8 1.2-6.4 3.5-20.1 5-29.4l1.9-10.8 3.4-20.5 4.1-24.5c3.2-17.9 4.7-27 7.2-43l3.4-21 2.4-15c2.5-16.4 3.4-22 4.6-28.5l3.6-22.5 3.4-22 7-45.5 2.9-18.5 3-20 4.7-30.9a591 591 0 0 0 2.9-20 850 850 0 0 1 2.4-17.6c1.8-11.5 5-34.1 6.6-46.5l2.4-18.5a3026 3026 0 0 0 13.9-116.9c1.3-2.5-.4-27.6-2.7-39.1-4.2-21.2-13.4-32.2-32.7-38.9a93.3 93.3 0 0 0-45.5-3.1z"/>
</svg>
