<svg xmlns="http://www.w3.org/2000/svg" viewBox="0 0 2000 2000">
  <defs>
    <linearGradient id="a" x1=".5" x2=".5" y1="0" y2="1" gradientTransform="scale(2000)" gradientUnits="userSpaceOnUse">
      <stop offset="0" stop-color="#38aeeb"/>
      <stop offset="1" stop-color="#279ad1"/>
    </linearGradient>
  </defs>
  <g fill-rule="evenodd">
    <rect width="2000" height="2000" rx="400" fill="url(#a)"/>
    <path fill="#fff" d="M378.3 987.2a57076.4 57076.4 0 0 1 667.5-275.7c317.9-126.9 362.1-145.2 405.1-146 9.5-.2 32.6 3.7 50.6 18.9 18 15.1 23.5 24.9 24.9 33.5 1.5 8.6 1.4 35.1-.1 50.3-17.2 173.6-82.6 574.3-120.6 768.8-16.1 82.3-47.6 109.9-78.2 112.6-66.5 5.8-117-42.1-181.4-82.6-100.8-63.3-134.3-86.7-232.2-148.5-113-71.4-66.4-96.3-2-160.4 16.8-16.8 296.1-271.5 300.2-294.8 3.7-20.4 5-23.2-4.3-32.3s-20.4-8.1-27.5-6.5c-10.1 2.2-163.9 99.7-461.4 292.1-45.7 30.1-87 44.8-124.1 44-40.8-.8-119.4-22.1-177.9-40.4-71.7-22.3-128.7-34.2-123.7-72.1 2.5-20 31-40.2 85.1-60.9z"/>
  </g>
</svg>
